<svg width="151" height="30" viewBox="0 0 151 30" fill="none" xmlns="http://www.w3.org/2000/svg">
<g clip-path="url(#clip0)">
<path d="M14.258 25.865C14.2724 26.4021 14.1797 26.9367 13.9851 27.4376C13.7906 27.9384 13.4982 28.3955 13.125 28.782C12.7521 29.1668 12.3057 29.4728 11.8124 29.682C11.3191 29.8913 10.7888 29.9994 10.253 30C9.71702 30.0002 9.18651 29.8924 8.69308 29.6832C8.19966 29.4739 7.75342 29.1674 7.38099 28.782C7.00709 28.396 6.71422 27.939 6.51964 27.438C6.32505 26.9371 6.23269 26.4022 6.24799 25.865C6.25699 25.167 6.44799 24.483 6.80499 23.884C7.16099 23.284 7.66799 22.79 8.27499 22.451C8.25099 22.56 8.36499 22.396 8.27499 22.451L10.135 20.799C11.6094 19.2298 12.4329 17.1592 12.439 15.006C12.439 12.08 10.728 9.105 8.26899 7.549C8.36299 7.604 8.23299 7.455 8.26899 7.549C7.66168 7.20902 7.15493 6.71469 6.79999 6.116C6.44382 5.5163 6.25172 4.83344 6.24299 4.136C6.22834 3.59872 6.321 3.06391 6.51555 2.56287C6.71009 2.06183 7.00261 1.60462 7.37599 1.218C7.74879 0.83334 8.19496 0.527354 8.68809 0.318146C9.18123 0.108938 9.71131 0.000756058 10.247 5.71818e-07C10.783 -0.000286365 11.3135 0.107418 11.807 0.316684C12.3004 0.52595 12.7466 0.832488 13.119 1.218C13.493 1.60395 13.786 2.06089 13.9806 2.56188C14.1752 3.06288 14.2675 3.59777 14.252 4.135C14.2627 6.30722 15.1026 8.39335 16.6 9.967L17.417 10.767C17.743 11.052 18.085 11.318 18.441 11.565C19.062 11.895 19.583 12.391 19.945 12.996C20.216 13.4489 20.3923 13.9521 20.4632 14.4751C20.5341 14.9982 20.4982 15.5301 20.3576 16.0389C20.217 16.5476 19.9746 17.0225 19.6452 17.4349C19.3158 17.8473 18.9061 18.1885 18.441 18.438C18.474 18.371 18.378 18.474 18.441 18.438C17.1848 19.2321 16.1457 20.3258 15.417 21.621C14.6865 22.9184 14.2886 24.3764 14.259 25.865H14.258ZM18.741 4.123C18.741 4.919 18.976 5.698 19.417 6.36C19.8564 7.02107 20.4822 7.53685 21.215 7.842C21.9471 8.14685 22.7534 8.22661 23.5311 8.07112C24.3087 7.91563 25.0224 7.53193 25.581 6.969C26.1413 6.40452 26.5226 5.68728 26.6772 4.9071C26.8318 4.12692 26.7527 3.31848 26.45 2.583C26.1473 1.84836 25.6337 1.2199 24.974 0.777001C24.2039 0.260281 23.2779 0.0276752 22.355 0.119089C21.4321 0.210504 20.5698 0.62024 19.916 1.278C19.1641 2.034 18.7417 3.05673 18.741 4.123ZM22.748 21.84C21.956 21.84 21.181 22.076 20.522 22.518C19.8624 22.9609 19.3487 23.5894 19.046 24.324C18.743 25.0596 18.6639 25.8683 18.8185 26.6486C18.9731 27.429 19.3545 28.1464 19.915 28.711C20.4736 29.2739 21.1872 29.6576 21.9649 29.8131C22.7425 29.9686 23.5489 29.8888 24.281 29.584C25.0144 29.2785 25.6406 28.762 26.08 28.1C26.5947 27.3249 26.8261 26.3959 26.735 25.47C26.6439 24.544 26.2359 23.6779 25.58 23.018C25.2088 22.6446 24.7676 22.3482 24.2816 22.1457C23.7956 21.9432 23.2745 21.8386 22.748 21.838V21.84ZM33 14.994C33 14.198 32.765 13.42 32.325 12.758C31.8857 12.0966 31.2599 11.5804 30.527 11.275C29.7948 10.9699 28.9882 10.8901 28.2104 11.0456C27.4325 11.2011 26.7187 11.5849 26.16 12.148C25.5995 12.7126 25.2181 13.43 25.0635 14.2104C24.9089 14.9907 24.988 15.7994 25.291 16.535C25.5937 17.2696 26.1073 17.8981 26.767 18.341C27.4252 18.783 28.2001 19.019 28.993 19.019C29.5194 19.0182 30.0406 18.9136 30.5265 18.7111C31.0125 18.5086 31.4537 18.2122 31.825 17.839C32.577 17.0826 32.9994 16.0596 33 14.993V14.994Z" fill="#67E8F9"/>
<path d="M4.00699 10.969C3.21399 10.969 2.43999 11.205 1.78099 11.647C1.12121 12.0902 0.607587 12.719 0.304995 13.454C0.00225821 14.1895 -0.0767693 14.9979 0.077808 15.7781C0.232385 16.5583 0.613697 17.2755 1.17399 17.84C1.73339 18.4017 2.44702 18.7845 3.22434 18.9399C4.00166 19.0953 4.80763 19.0164 5.53999 18.713C6.2729 18.4075 6.89866 17.8914 7.33799 17.23C7.85242 16.4552 8.08361 15.5265 7.99251 14.601C7.90141 13.6754 7.49361 12.8097 6.83799 12.15C6.4669 11.7767 6.02585 11.4803 5.54007 11.2776C5.0543 11.075 4.53334 10.9701 4.00699 10.969Z" fill="#67E8F9"/>
<path d="M58.7188 7.9375H61.6719V19.9023C61.6719 21.5352 61.1602 22.832 60.1367 23.793C59.1211 24.7539 57.7773 25.2344 56.1055 25.2344C54.3242 25.2344 52.9492 24.7852 51.9805 23.8867C51.0117 22.9883 50.5273 21.7383 50.5273 20.1367H53.4805C53.4805 21.043 53.7031 21.7266 54.1484 22.1875C54.6016 22.6406 55.2539 22.8672 56.1055 22.8672C56.9023 22.8672 57.5352 22.6055 58.0039 22.082C58.4805 21.5508 58.7188 20.8203 58.7188 19.8906V7.9375ZM72.4766 23.7578C71.6406 24.7422 70.4531 25.2344 68.9141 25.2344C67.5391 25.2344 66.4961 24.832 65.7852 24.0273C65.082 23.2227 64.7305 22.0586 64.7305 20.5352V12.3203H67.5781V20.5C67.5781 22.1094 68.2461 22.9141 69.582 22.9141C70.9648 22.9141 71.8984 22.418 72.3828 21.4258V12.3203H75.2305V25H72.5469L72.4766 23.7578ZM85.2383 21.5547C85.2383 21.0469 85.0273 20.6602 84.6055 20.3945C84.1914 20.1289 83.5 19.8945 82.5312 19.6914C81.5625 19.4883 80.7539 19.2305 80.1055 18.918C78.6836 18.2305 77.9727 17.2344 77.9727 15.9297C77.9727 14.8359 78.4336 13.9219 79.3555 13.1875C80.2773 12.4531 81.4492 12.0859 82.8711 12.0859C84.3867 12.0859 85.6094 12.4609 86.5391 13.2109C87.4766 13.9609 87.9453 14.9336 87.9453 16.1289H85.0977C85.0977 15.582 84.8945 15.1289 84.4883 14.7695C84.082 14.4023 83.543 14.2188 82.8711 14.2188C82.2461 14.2188 81.7344 14.3633 81.3359 14.6523C80.9453 14.9414 80.75 15.3281 80.75 15.8125C80.75 16.25 80.9336 16.5898 81.3008 16.832C81.668 17.0742 82.4102 17.3203 83.5273 17.5703C84.6445 17.8125 85.5195 18.1055 86.1523 18.4492C86.793 18.7852 87.2656 19.1914 87.5703 19.668C87.8828 20.1445 88.0391 20.7227 88.0391 21.4023C88.0391 22.543 87.5664 23.4688 86.6211 24.1797C85.6758 24.8828 84.4375 25.2344 82.9062 25.2344C81.8672 25.2344 80.9414 25.0469 80.1289 24.6719C79.3164 24.2969 78.6836 23.7812 78.2305 23.125C77.7773 22.4688 77.5508 21.7617 77.5508 21.0039H80.3164C80.3555 21.6758 80.6094 22.1953 81.0781 22.5625C81.5469 22.9219 82.168 23.1016 82.9414 23.1016C83.6914 23.1016 84.2617 22.9609 84.6523 22.6797C85.043 22.3906 85.2383 22.0156 85.2383 21.5547ZM94.0977 9.23828V12.3203H96.3359V14.4297H94.0977V21.5078C94.0977 21.9922 94.1914 22.3438 94.3789 22.5625C94.5742 22.7734 94.918 22.8789 95.4102 22.8789C95.7383 22.8789 96.0703 22.8398 96.4062 22.7617V24.9648C95.7578 25.1445 95.1328 25.2344 94.5312 25.2344C92.3438 25.2344 91.25 24.0273 91.25 21.6133V14.4297H89.1641V12.3203H91.25V9.23828H94.0977ZM101.762 18.6602V25H98.7969V7.9375H105.324C107.23 7.9375 108.742 8.43359 109.859 9.42578C110.984 10.418 111.547 11.7305 111.547 13.3633C111.547 15.0352 110.996 16.3359 109.895 17.2656C108.801 18.1953 107.266 18.6602 105.289 18.6602H101.762ZM101.762 16.2812H105.324C106.379 16.2812 107.184 16.0352 107.738 15.543C108.293 15.043 108.57 14.3242 108.57 13.3867C108.57 12.4648 108.289 11.7305 107.727 11.1836C107.164 10.6289 106.391 10.3438 105.406 10.3281H101.762V16.2812ZM121.309 25C121.184 24.7578 121.074 24.3633 120.98 23.8164C120.074 24.7617 118.965 25.2344 117.652 25.2344C116.379 25.2344 115.34 24.8711 114.535 24.1445C113.73 23.418 113.328 22.5195 113.328 21.4492C113.328 20.0977 113.828 19.0625 114.828 18.3438C115.836 17.6172 117.273 17.2539 119.141 17.2539H120.887V16.4219C120.887 15.7656 120.703 15.2422 120.336 14.8516C119.969 14.4531 119.41 14.2539 118.66 14.2539C118.012 14.2539 117.48 14.418 117.066 14.7461C116.652 15.0664 116.445 15.4766 116.445 15.9766H113.598C113.598 15.2812 113.828 14.6328 114.289 14.0312C114.75 13.4219 115.375 12.9453 116.164 12.6016C116.961 12.2578 117.848 12.0859 118.824 12.0859C120.309 12.0859 121.492 12.4609 122.375 13.2109C123.258 13.9531 123.711 15 123.734 16.3516V22.0703C123.734 23.2109 123.895 24.1211 124.215 24.8008V25H121.309ZM118.18 22.9492C118.742 22.9492 119.27 22.8125 119.762 22.5391C120.262 22.2656 120.637 21.8984 120.887 21.4375V19.0469H119.352C118.297 19.0469 117.504 19.2305 116.973 19.5977C116.441 19.9648 116.176 20.4844 116.176 21.1562C116.176 21.7031 116.355 22.1406 116.715 22.4688C117.082 22.7891 117.57 22.9492 118.18 22.9492ZM130.965 20.9219L133.543 12.3203H136.578L131.539 26.9219C130.766 29.0547 129.453 30.1211 127.602 30.1211C127.188 30.1211 126.73 30.0508 126.23 29.9102V27.707L126.77 27.7422C127.488 27.7422 128.027 27.6094 128.387 27.3438C128.754 27.0859 129.043 26.6484 129.254 26.0312L129.664 24.9414L125.211 12.3203H128.281L130.965 20.9219Z" fill="white"/>
</g>
<defs>
<clipPath id="clip0">
<rect width="151" height="30" fill="white"/>
</clipPath>
</defs>
</svg>
